<?xml version="1.0" standalone="no"?>
<!DOCTYPE svg PUBLIC "-//W3C//DTD SVG 20010904//EN"
 "http://www.w3.org/TR/2001/REC-SVG-20010904/DTD/svg10.dtd">
<svg version="1.0" xmlns="http://www.w3.org/2000/svg"
 width="1280.000000pt" height="640.000000pt" viewBox="0 0 1280.000000 640.000000"
 preserveAspectRatio="xMidYMid meet">
<metadata>
Created by potrace 1.15, written by Peter Selinger 2001-2017
</metadata>
<g transform="translate(0.000000,640.000000) scale(0.100000,-0.100000)"
fill="#000000" stroke="none">
<path d="M6840 5979 c-1501 -65 -2963 -692 -4278 -1836 -455 -396 -944 -913
-1302 -1375 l-74 -96 -61 23 c-33 13 -143 55 -245 95 -368 143 -528 203 -669
251 -134 46 -211 61 -211 41 0 -16 76 -85 185 -167 105 -79 291 -208 627 -435
l155 -104 -97 -146 c-53 -80 -100 -152 -105 -160 -7 -13 -6 -13 7 0 8 8 65 74
126 146 l111 131 248 -164 c398 -264 693 -439 1048 -625 1295 -677 2657 -1047
4070 -1107 138 -6 309 -17 380 -23 200 -19 483 -14 650 11 77 12 223 30 325
40 372 39 685 83 970 137 816 155 1649 420 2288 730 272 132 341 175 420 263
85 95 132 125 194 123 58 -1 91 -18 194 -98 179 -140 290 -188 434 -188 111 0
173 16 295 73 117 56 194 121 232 195 121 236 -104 656 -541 1014 -900 738
-1850 1258 -2851 1561 -1199 364 -2473 414 -3785 151 -1216 -244 -2474 -767
-3614 -1502 -180 -115 -491 -332 -501 -348 -4 -6 -13 -10 -22 -10 -24 0 -163
53 -163 62 0 16 368 392 582 594 987 936 1943 1559 2978 1942 1341 496 2773
491 4150 -15 675 -248 1321 -604 1941 -1069 333 -251 528 -421 849 -743 254
-255 371 -353 500 -420 176 -91 288 -94 384 -10 76 67 135 222 136 355 0 73
-34 197 -75 270 -53 94 -120 161 -314 313 -1589 1244 -3129 1936 -4671 2096
-138 14 -590 37 -675 33 -22 0 -123 -5 -225 -9z m-1669 -1906 c-302 -362 -462
-701 -528 -1117 -26 -169 -24 -472 6 -639 51 -292 150 -551 303 -792 21 -33
34 -61 29 -63 -14 -5 -656 161 -961 248 -804 230 -1583 490 -2519 842 -23 8
-24 9 -5 22 10 7 120 70 244 138 1119 622 2185 1066 3190 1328 107 28 209 55
225 59 48 14 49 13 16 -26z m3909 -26 c637 -201 1307 -561 1790 -961 453 -375
565 -523 563 -746 -1 -194 -101 -358 -297 -489 -580 -389 -1325 -641 -2188
-740 -81 -9 -148 -15 -148 -13 0 3 39 45 87 96 278 292 474 670 548 1056 41
214 49 484 20 689 -57 405 -247 816 -512 1111 -54 60 -62 60 137 -3z m-3897
-1366 c12 -230 72 -448 183 -659 l54 -103 -53 -23 c-28 -13 -87 -40 -131 -60
-43 -20 -82 -36 -86 -36 -12 0 -88 170 -125 279 -55 162 -85 323 -92 501 -3
86 -3 176 1 200 l6 45 119 -9 118 -9 6 -126z"/>
</g>
</svg>
