<?xml version="1.0" encoding="utf-8"?>
<!-- Generator: Adobe Illustrator 15.0.0, SVG Export Plug-In . SVG Version: 6.00 Build 0)  -->
<!DOCTYPE svg PUBLIC "-//W3C//DTD SVG 1.1//EN" "http://www.w3.org/Graphics/SVG/1.1/DTD/svg11.dtd">
<svg version="1.1" id="Capa_1" xmlns="http://www.w3.org/2000/svg" xmlns:xlink="http://www.w3.org/1999/xlink" x="0px" y="0px"
	 width="600px" height="600px" viewBox="0 0 600 600" enable-background="new 0 0 600 600" xml:space="preserve">
<g>
	<path fill="#E7BD79" d="M500,423.139C500,465.587,465.587,500,423.138,500H176.862C134.411,500,100,465.587,100,423.139V176.862
		C100,134.413,134.411,100,176.862,100h246.275C465.587,100,500,134.413,500,176.862V423.139z"/>
	<path fill="#DEB46F" d="M500,423.139v-73.777l-124.343-96.076L179.89,301.154L410.861,500h12.276
		C465.587,500,500,465.587,500,423.139z"/>
	<path fill="#FFFFFF" d="M423.378,296.525c-0.55-0.777-55.827-77.666-123.38-77.666c-67.551,0-122.828,76.889-123.386,77.678
		c-1.456,2.071-1.456,4.853,0.008,6.935c0.55,0.778,55.828,77.668,123.378,77.668c67.553,0,122.83-76.89,123.384-77.672
		C424.848,301.394,424.848,298.605,423.378,296.525z"/>
	<path fill="#8DB3B3" d="M360.072,300.001c0-33.178-26.896-60.074-60.072-60.074c-33.178,0-60.073,26.896-60.073,60.074
		c0,33.175,26.895,60.073,60.073,60.073C333.177,360.074,360.072,333.176,360.072,300.001z"/>
	<circle fill="#223E52" cx="300" cy="300.001" r="26.117"/>
	<circle fill="#FFFFFF" cx="330.125" cy="264.439" r="13.829"/>
</g>
</svg>
